# Blender v2.76 (sub 0) OBJ File: ''
# www.blender.org
mtllib materialcube.mtl
o Cube
v 1.000000 -1.000000 -1.000000
v 1.000000 -1.000000 1.000000
v -1.000000 -1.000000 1.000000
v -1.000000 -1.000000 -1.000000
v 1.000000 1.000000 -0.999999
v 0.999999 1.000000 1.000001
v -1.000000 1.000000 1.000000
v -1.000000 1.000000 -1.000000
vt 0.333333 0.666667
vt 0.333333 1.000000
vt 0.000000 1.000000
vt 0.000000 0.666667
vt 0.000000 0.333333
vt 0.666667 0.333333
vt 0.666667 0.666667
vt 0.333333 0.333333
vt 0.333333 0.000000
vt 0.666667 0.000000
vt 1.000000 0.333333
vt 1.000000 0.000000
vt 0.000000 0.000000
vn 0.000000 -1.000000 0.000000
vn 0.000000 1.000000 0.000000
vn 0.000000 0.000000 -1.000000
vn 1.000000 0.000000 0.000000
vn -1.000000 -0.000000 -0.000000
vn -0.000000 0.000000 1.000000
usemtl Material
s off
f 2/1/1 3/2/1 4/3/1
f 8/1/2 7/4/2 6/5/2
f 1/6/3 4/7/3 8/1/3
f 1/4/1 2/1/1 4/3/1
f 5/8/2 8/1/2 6/5/2
f 5/8/3 1/6/3 8/1/3
usemtl Material.001
f 5/8/4 6/9/4 2/10/4
f 1/6/4 5/8/4 2/10/4
usemtl Material.002
f 3/11/5 7/6/5 8/10/5
f 4/12/5 3/11/5 8/10/5
usemtl Material.003
f 6/13/6 7/9/6 3/8/6
f 2/5/6 6/13/6 3/8/6
